<svg width="65" height="65" viewBox="0 0 65 65" fill="none" xmlns="http://www.w3.org/2000/svg">
<path d="M46.9998 31.2618C46.9998 42.6592 32.2501 52.4285 32.2501 52.4285C32.2501 52.4285 17.5005 42.6592 17.5005 31.2618C17.5005 27.3753 19.0545 23.6481 21.8206 20.8999C24.5867 18.1518 28.3383 16.6079 32.2501 16.6079C36.162 16.6079 39.9136 18.1518 42.6797 20.8999C45.4458 23.6481 46.9998 27.3753 46.9998 31.2618Z" stroke="black" stroke-width="2.74796" stroke-linecap="round" stroke-linejoin="round"/>
<path d="M32.2498 35.5724C34.5773 35.5724 36.464 33.6857 36.464 31.3582C36.464 29.0308 34.5773 27.144 32.2498 27.144C29.9224 27.144 28.0356 29.0308 28.0356 31.3582C28.0356 33.6857 29.9224 35.5724 32.2498 35.5724Z" stroke="black" stroke-width="2.74796" stroke-linecap="round" stroke-linejoin="round"/>
</svg>
