<svg width="65" height="65" viewBox="0 0 65 65" fill="none" xmlns="http://www.w3.org/2000/svg">
<path d="M41.674 31.2849H23.4932C22.0588 31.2849 20.896 32.4477 20.896 33.8822V42.9725C20.896 44.4069 22.0588 45.5698 23.4932 45.5698H41.674C43.1084 45.5698 44.2712 44.4069 44.2712 42.9725V33.8822C44.2712 32.4477 43.1084 31.2849 41.674 31.2849Z" stroke="black" stroke-width="2.70147" stroke-linecap="round" stroke-linejoin="round"/>
<path d="M26.0903 31.2847V26.0902C26.0887 24.48 26.6855 22.9266 27.7647 21.7316C28.844 20.5366 30.3288 19.7853 31.9309 19.6235C33.533 19.4616 35.138 19.9009 36.4345 20.8559C37.7309 21.8109 38.6263 23.2136 38.9467 24.7916" stroke="black" stroke-width="2.70147" stroke-linecap="round" stroke-linejoin="round"/>
<path d="M32.5836 40.3752C34.018 40.3752 35.1808 39.2123 35.1808 37.7779C35.1808 36.3435 34.018 35.1807 32.5836 35.1807C31.1492 35.1807 29.9863 36.3435 29.9863 37.7779C29.9863 39.2123 31.1492 40.3752 32.5836 40.3752Z" stroke="black" stroke-width="2.70147" stroke-linecap="round" stroke-linejoin="round"/>
</svg>
