<svg width="65" height="65" viewBox="0 0 65 65" fill="none" xmlns="http://www.w3.org/2000/svg">
<path d="M39.3335 28.3333H40.6668C42.0813 28.3333 43.4379 28.8952 44.4381 29.8953C45.4383 30.8955 46.0002 32.2521 46.0002 33.6666C46.0002 35.0811 45.4383 36.4376 44.4381 37.4378C43.4379 38.438 42.0813 38.9999 40.6668 38.9999H39.3335" stroke="black" stroke-width="2.54254" stroke-linecap="round" stroke-linejoin="round"/>
<path d="M18 28.3333H39.3333V40.3333C39.3333 41.7477 38.7714 43.1043 37.7712 44.1045C36.771 45.1047 35.4145 45.6666 34 45.6666H23.3333C21.9188 45.6666 20.5623 45.1047 19.5621 44.1045C18.5619 43.1043 18 41.7477 18 40.3333V28.3333Z" stroke="black" stroke-width="2.54254" stroke-linecap="round" stroke-linejoin="round"/>
<path d="M23.333 19V23" stroke="black" stroke-width="2.54254" stroke-linecap="round" stroke-linejoin="round"/>
<path d="M28.667 19V23" stroke="black" stroke-width="2.54254" stroke-linecap="round" stroke-linejoin="round"/>
<path d="M34 19V23" stroke="black" stroke-width="2.54254" stroke-linecap="round" stroke-linejoin="round"/>
</svg>
