<svg width="65" height="65" viewBox="0 0 65 65" fill="none" xmlns="http://www.w3.org/2000/svg">
<path d="M37.5078 15.1387C37.2344 15.2874 36.9531 15.7024 36.9531 15.9607C36.9531 16.0469 38.0469 20.3452 39.3906 25.5204C40.7266 30.6878 41.8281 34.9782 41.8281 35.0409C41.8281 35.1035 40.8516 36.5519 39.6641 38.2509L37.5 41.3435L28.0703 41.3827C19.3281 41.4218 18.6016 41.4375 18.1641 41.5627C16.3281 42.1108 15.0078 43.8489 15 45.7358C15 46.3621 15.25 47.3251 15.5625 47.8732C15.6953 48.1159 16.0234 48.523 16.2812 48.7892C17.6562 50.1594 19.6328 50.4491 21.3594 49.5408C21.9375 49.2355 22.7109 48.5387 22.9297 48.1237L23.0547 47.881H29.0703C34.0234 47.881 35.1328 47.8654 35.3438 47.7714C35.5156 47.7009 35.7422 47.4661 36.0312 47.0511C36.2656 46.7066 37.7344 44.6005 39.2969 42.3613C42.3594 37.9612 42.5 37.7577 42.5391 37.7968C42.5859 37.836 43.5938 41.7585 43.5938 41.8681C43.5938 41.9229 43.4453 42.056 43.2734 42.1656C42.5 42.6432 41.7188 43.755 41.4922 44.7101C41.3594 45.2504 41.375 46.3465 41.5234 46.9024C42 48.7031 43.7891 50.0654 45.6719 50.0732C46.2969 50.0732 47.2578 49.8227 47.8047 49.5095C48.3672 49.1885 49.1172 48.4369 49.4375 47.8732C49.75 47.3251 50 46.3621 50 45.7358C49.9922 43.7158 48.4219 41.8054 46.5234 41.5314C46.2188 41.4844 45.8906 41.4218 45.7891 41.3983C45.6094 41.3435 45.4453 40.7407 42.4922 29.3255C40.7812 22.7175 39.375 17.2448 39.375 17.1665C39.375 17.0412 39.5078 17.0334 41.0156 17.0334C42.9297 17.0334 43.0469 17.0021 43.2969 16.4383C43.4688 16.039 43.4375 15.7494 43.1875 15.4284C42.8594 15.0056 42.7812 14.9977 40.1797 14.9977C37.9922 14.9977 37.75 15.0134 37.5078 15.1387ZM20.125 43.6297C20.6562 43.8098 21.2578 44.4283 21.4453 44.9763C21.6172 45.5087 21.5781 46.2995 21.3438 46.7458C21.1406 47.1451 20.6875 47.5757 20.2344 47.8106C19.7031 48.0768 18.9297 48.0689 18.3438 47.7792C17.5156 47.3721 17.0703 46.6518 17.0781 45.728C17.0781 45.0938 17.2656 44.6632 17.7266 44.1777C18.3359 43.5279 19.2344 43.3243 20.125 43.6297ZM35.9375 43.5436C35.9375 43.5749 35.5859 44.0994 35.1562 44.718L34.3672 45.8454H29.0312C23.0938 45.8454 23.5938 45.8924 23.5938 45.313C23.5938 44.9372 23.4297 44.3265 23.2188 43.9115C23.125 43.7315 23.0469 43.5592 23.0469 43.5357C23.0469 43.5122 25.9453 43.4966 29.4922 43.4966C33.0391 43.4966 35.9375 43.5201 35.9375 43.5436ZM46.5 43.6532C46.9844 43.8332 47.4688 44.2952 47.7422 44.8276C47.875 45.0938 47.9219 45.313 47.9219 45.728C47.9297 46.6518 47.4844 47.3721 46.6562 47.7792C46.0703 48.0689 45.2969 48.0768 44.7656 47.8106C43.3125 47.0668 42.9844 45.2738 44.1016 44.1543C44.7422 43.5122 45.625 43.3243 46.5 43.6532Z" fill="black"/>
</svg>
