<svg width="65" height="65" viewBox="0 0 65 65" fill="none" xmlns="http://www.w3.org/2000/svg">
<path fill-rule="evenodd" clip-rule="evenodd" d="M33.4028 37.7988C33.4028 36.749 33.1581 35.8512 32.6706 35.1124C32.185 34.3728 31.4593 33.8366 30.5019 33.4939C31.134 33.1811 31.6103 32.833 31.9329 32.4505C32.5121 31.7697 32.8013 30.8736 32.8013 29.7515C32.8013 28.6656 32.5168 27.7316 31.9421 26.953C30.9847 25.6818 29.3628 25.0353 27.0754 25H18V43.3333H26.4646C27.4165 43.3333 28.2997 43.2529 29.1172 43.0874C29.9309 42.9219 30.639 42.6127 31.2378 42.1642C31.7688 41.7772 32.2118 41.2953 32.5677 40.7247C33.1275 39.8631 33.4028 38.8883 33.4028 37.7988ZM36.6708 27.5932H44.2392V25.7586H36.6708V27.5932ZM22.3338 32.2281H26.3108C27.1282 32.2281 27.7891 32.0753 28.297 31.7733C28.8058 31.4704 29.0597 30.9324 29.0597 30.1602C29.0597 29.3085 28.7242 28.7424 28.0504 28.4703C27.4712 28.2804 26.7306 28.1827 25.8325 28.1827H22.3338V32.2281ZM28.2469 35.5727C29.043 35.9271 29.4425 36.5845 29.4425 37.5366C29.4425 38.6668 29.0301 39.4272 28.208 39.8251C27.752 40.0439 27.1208 40.147 26.3043 40.147H22.3338V35.2616H26.3682C27.1737 35.2689 27.802 35.3729 28.2469 35.5727ZM47.0465 34.5546C47.1392 35.1549 47.1809 36.0248 47.1624 37.1622H37.3622C37.4169 38.4824 37.883 39.4046 38.77 39.9327C39.3029 40.2636 39.9508 40.4255 40.7098 40.4255C41.5097 40.4255 42.1612 40.2283 42.6626 39.8233C42.9361 39.6081 43.177 39.3043 43.3846 38.9227H46.9779C46.8825 39.7012 46.4515 40.4906 45.673 41.2962C44.469 42.5711 42.7804 43.214 40.6116 43.214C38.8182 43.214 37.2398 42.6715 35.8691 41.5964C34.502 40.5186 33.8162 38.7654 33.8162 36.3367C33.8162 34.0591 34.4334 32.314 35.6698 31.1015C36.9099 29.8853 38.5105 29.2804 40.4846 29.2804C41.6543 29.2804 42.709 29.4839 43.6506 29.8935C44.5886 30.3049 45.3634 30.9505 45.9732 31.8384C46.5247 32.6205 46.8806 33.5247 47.0465 34.5546ZM42.5681 32.8221C43.1316 33.2941 43.4449 33.9849 43.5088 34.8973H37.4437C37.5716 34.0392 37.8821 33.3628 38.3817 32.8628C38.8803 32.3637 39.5763 32.1105 40.4828 32.1105C41.3132 32.1105 42.0092 32.3474 42.5681 32.8221Z" fill="#9A9A9D"/>
</svg>
