<svg width="65" height="65" viewBox="0 0 65 65" fill="none" xmlns="http://www.w3.org/2000/svg">
<path fill-rule="evenodd" clip-rule="evenodd" d="M33.4028 35.7988C33.4028 34.749 33.1581 33.8512 32.6706 33.1124C32.185 32.3728 31.4593 31.8366 30.5019 31.4939C31.134 31.1811 31.6103 30.833 31.9329 30.4505C32.5121 29.7697 32.8013 28.8736 32.8013 27.7515C32.8013 26.6656 32.5168 25.7316 31.9421 24.953C30.9847 23.6818 29.3628 23.0353 27.0754 23H18V41.3333H26.4646C27.4165 41.3333 28.2997 41.2529 29.1172 41.0874C29.9309 40.9219 30.639 40.6127 31.2378 40.1642C31.7688 39.7772 32.2118 39.2953 32.5677 38.7247C33.1275 37.8631 33.4028 36.8883 33.4028 35.7988ZM36.6708 25.5932H44.2392V23.7586H36.6708V25.5932ZM22.3338 30.2281H26.3108C27.1282 30.2281 27.7891 30.0753 28.297 29.7733C28.8058 29.4704 29.0597 28.9324 29.0597 28.1602C29.0597 27.3085 28.7242 26.7424 28.0504 26.4703C27.4712 26.2804 26.7306 26.1827 25.8325 26.1827H22.3338V30.2281ZM28.2469 33.5727C29.043 33.9271 29.4425 34.5845 29.4425 35.5366C29.4425 36.6668 29.0301 37.4272 28.208 37.8251C27.752 38.0439 27.1208 38.147 26.3043 38.147H22.3338V33.2616H26.3682C27.1737 33.2689 27.802 33.3729 28.2469 33.5727ZM47.0465 32.5546C47.1392 33.1549 47.1809 34.0248 47.1624 35.1622H37.3622C37.4169 36.4824 37.883 37.4046 38.77 37.9327C39.3029 38.2636 39.9508 38.4255 40.7098 38.4255C41.5097 38.4255 42.1612 38.2283 42.6626 37.8233C42.9361 37.6081 43.177 37.3043 43.3846 36.9227H46.9779C46.8825 37.7012 46.4515 38.4906 45.673 39.2962C44.469 40.5711 42.7804 41.214 40.6116 41.214C38.8182 41.214 37.2398 40.6715 35.8691 39.5964C34.502 38.5186 33.8162 36.7654 33.8162 34.3367C33.8162 32.0591 34.4334 30.314 35.6698 29.1015C36.9099 27.8853 38.5105 27.2804 40.4846 27.2804C41.6543 27.2804 42.709 27.4839 43.6506 27.8935C44.5886 28.3049 45.3634 28.9505 45.9732 29.8384C46.5247 30.6205 46.8806 31.5247 47.0465 32.5546ZM42.5681 30.8221C43.1316 31.2941 43.4449 31.9849 43.5088 32.8973H37.4437C37.5716 32.0392 37.8821 31.3628 38.3817 30.8628C38.8803 30.3637 39.5763 30.1105 40.4828 30.1105C41.3132 30.1105 42.0092 30.3474 42.5681 30.8221Z" fill="#121212"/>
</svg>
