<svg width="65" height="65" viewBox="0 0 65 65" fill="none" xmlns="http://www.w3.org/2000/svg">
<path fill-rule="evenodd" clip-rule="evenodd" d="M38.6586 19H27.3414C22.7419 19 19 22.7419 19 27.3414V38.6586C19 43.2581 22.7419 47 27.3414 47H38.6586C43.2581 47 47 43.2581 47 38.6586V27.3414C46.9999 22.7419 43.258 19 38.6586 19ZM44.1832 38.6586C44.1832 41.7097 41.7097 44.1832 38.6586 44.1832H27.3414C24.2903 44.1832 21.8168 41.7097 21.8168 38.6586V27.3414C21.8168 24.2902 24.2903 21.8168 27.3414 21.8168H38.6586C41.7097 21.8168 44.1832 24.2902 44.1832 27.3414V38.6586ZM25.7582 32.9999C25.7582 29.0069 29.0069 25.7582 33 25.7582C36.9931 25.7582 40.2418 29.0068 40.2418 32.9999C40.2418 36.9931 36.9931 40.2417 33 40.2417C29.0069 40.2417 25.7582 36.993 25.7582 32.9999ZM33 37.425C30.5561 37.425 28.575 35.4439 28.575 33C28.575 30.5561 30.5562 28.575 33 28.575C35.4439 28.575 37.425 30.5561 37.425 33C37.425 35.4438 35.4438 37.425 33 37.425ZM40.2558 27.5479C41.2142 27.5479 41.9911 26.7709 41.9911 25.8126C41.9911 24.8542 41.2142 24.0773 40.2558 24.0773C39.2975 24.0773 38.5205 24.8542 38.5205 25.8126C38.5205 26.7709 39.2975 27.5479 40.2558 27.5479Z" fill="#9A9A9D"/>
<mask id="mask0" mask-type="alpha" maskUnits="userSpaceOnUse" x="19" y="19" width="28" height="28">
<path fill-rule="evenodd" clip-rule="evenodd" d="M38.6586 19H27.3414C22.7419 19 19 22.7419 19 27.3414V38.6586C19 43.2581 22.7419 47 27.3414 47H38.6586C43.2581 47 47 43.2581 47 38.6586V27.3414C46.9999 22.7419 43.258 19 38.6586 19ZM44.1832 38.6586C44.1832 41.7097 41.7097 44.1832 38.6586 44.1832H27.3414C24.2903 44.1832 21.8168 41.7097 21.8168 38.6586V27.3414C21.8168 24.2902 24.2903 21.8168 27.3414 21.8168H38.6586C41.7097 21.8168 44.1832 24.2902 44.1832 27.3414V38.6586ZM25.7582 32.9999C25.7582 29.0069 29.0069 25.7582 33 25.7582C36.9931 25.7582 40.2418 29.0068 40.2418 32.9999C40.2418 36.9931 36.9931 40.2417 33 40.2417C29.0069 40.2417 25.7582 36.993 25.7582 32.9999ZM33 37.425C30.5561 37.425 28.575 35.4439 28.575 33C28.575 30.5561 30.5562 28.575 33 28.575C35.4439 28.575 37.425 30.5561 37.425 33C37.425 35.4438 35.4438 37.425 33 37.425ZM40.2558 27.5479C41.2142 27.5479 41.9911 26.7709 41.9911 25.8126C41.9911 24.8542 41.2142 24.0773 40.2558 24.0773C39.2975 24.0773 38.5205 24.8542 38.5205 25.8126C38.5205 26.7709 39.2975 27.5479 40.2558 27.5479Z" fill="white"/>
</mask>
<g mask="url(#mask0)">
</g>
</svg>
