<svg width="65" height="65" viewBox="0 0 65 65" fill="none" xmlns="http://www.w3.org/2000/svg">
<path d="M24.4323 23C22.9616 23 22 23.9507 22 25.2002C22 26.4221 22.933 27.3999 24.3759 27.3999H24.4038C25.9033 27.3999 26.8365 26.4221 26.8365 25.2002C26.8085 23.9507 25.9033 23 24.4323 23Z" fill="#9A9A9D"/>
<path d="M22.2542 29.1385H26.5538V41.8719H22.2542V29.1385Z" fill="#9A9A9D"/>
<path d="M37.1072 28.8396C34.7877 28.8396 33.2323 30.9851 33.2323 30.9851V29.1385H28.9326V41.8719H33.2321V34.761C33.2321 34.3804 33.2601 34.0003 33.3737 33.7281C33.6846 32.9679 34.3919 32.1804 35.5797 32.1804C37.1356 32.1804 37.7578 33.3481 37.7578 35.0599V41.8719H42.057V34.5708C42.057 30.6596 39.9358 28.8396 37.1072 28.8396Z" fill="#9A9A9D"/>
</svg>
