<svg width="74" height="74" viewBox="0 0 74 74" fill="none" xmlns="http://www.w3.org/2000/svg">
<rect width="74" height="74" rx="37" fill="white" fill-opacity="0.4"/>
<path d="M45.75 28.25V26.5C45.75 21.6 41.9 17.75 37 17.75C32.1 17.75 28.25 21.6 28.25 26.5V28.25C24.4 28.25 21.25 31.4 21.25 35.25V49.25C21.25 53.1 24.4 56.25 28.25 56.25H45.75C49.6 56.25 52.75 53.1 52.75 49.25V35.25C52.75 31.4 49.6 28.25 45.75 28.25ZM31.75 26.5C31.75 23.525 34.025 21.25 37 21.25C39.975 21.25 42.25 23.525 42.25 26.5V28.25H31.75V26.5ZM49.25 49.25C49.25 51.175 47.675 52.75 45.75 52.75H28.25C26.325 52.75 24.75 51.175 24.75 49.25V35.25C24.75 33.325 26.325 31.75 28.25 31.75H45.75C47.675 31.75 49.25 33.325 49.25 35.25V49.25Z" fill="#3F4049"/>
<path d="M37 37C34.025 37 31.75 39.275 31.75 42.25C31.75 45.225 34.025 47.5 37 47.5C39.975 47.5 42.25 45.225 42.25 42.25C42.25 39.275 39.975 37 37 37ZM37 44C35.95 44 35.25 43.3 35.25 42.25C35.25 41.2 35.95 40.5 37 40.5C38.05 40.5 38.75 41.2 38.75 42.25C38.75 43.3 38.05 44 37 44Z" fill="#3F4049"/>
</svg>
